HIERARCHY
ROOT Hips
{
	OFFSET 0.000000 97.167313 0.000000
	CHANNELS 6 Xposition Yposition Zposition Xrotation Yrotation Zrotation
	JOINT Spine
	{
		OFFSET 0.000000 13.784798 0.064400
		CHANNELS 3 Xrotation Yrotation Zrotation
		JOINT Spine1
		{
			OFFSET 0.000000 12.037903 0.404700
			CHANNELS 3 Xrotation Yrotation Zrotation
			JOINT Spine2
			{
				OFFSET 0.000000 17.795601 0.420200
				CHANNELS 3 Xrotation Yrotation Zrotation
				JOINT Neck
				{
					OFFSET 0.000000 39.131302 11.954600
					CHANNELS 3 Xrotation Yrotation Zrotation
					JOINT Head
					{
						OFFSET 0.000000 14.456192 15.627699
						CHANNELS 3 Xrotation Yrotation Zrotation
						JOINT HeadTop_End
						{
							OFFSET 0.000000 15.703506 7.603401
							CHANNELS 3 Xrotation Yrotation Zrotation
							End Site
							{
								OFFSET 0.000000 17.447403 0.000000
							}
						}
					}
				}
				JOINT LeftShoulder
				{
					OFFSET 17.399500 24.608795 1.168800
					CHANNELS 3 Xrotation Yrotation Zrotation
					JOINT LeftArm
					{
						OFFSET 18.980635 5.765305 1.818600
						CHANNELS 3 Xrotation Yrotation Zrotation
						JOINT LeftForeArm
						{
							OFFSET 49.290169 0.000000 0.000000
							CHANNELS 3 Xrotation Yrotation Zrotation
							JOINT LeftHand
							{
								OFFSET 31.562012 0.000000 0.000000
								CHANNELS 3 Xrotation Yrotation Zrotation
								JOINT LeftHandThumb1
								{
									OFFSET 6.133995 -4.388519 7.076070
									CHANNELS 3 Xrotation Yrotation Zrotation
									JOINT LeftHandThumb2
									{
										OFFSET 6.037666 -3.485840 3.485847
										CHANNELS 3 Xrotation Yrotation Zrotation
										JOINT LeftHandThumb3
										{
											OFFSET 6.496506 -3.750763 3.750761
											CHANNELS 3 Xrotation Yrotation Zrotation
											JOINT LeftHandThumb4
											{
												OFFSET 5.616882 -3.242905 3.242910
												CHANNELS 3 Xrotation Yrotation Zrotation
												End Site
												{
													OFFSET -1.254608 7.132141 0.375429
												}
											}
										}
									}
								}
								JOINT LeftHandPinky1
								{
									OFFSET 18.920792 -0.453171 -11.426712
									CHANNELS 3 Xrotation Yrotation Zrotation
									JOINT LeftHandPinky2
									{
										OFFSET 4.919586 0.000000 0.000000
										CHANNELS 3 Xrotation Yrotation Zrotation
										JOINT LeftHandPinky3
										{
											OFFSET 5.233047 0.000000 0.000000
											CHANNELS 3 Xrotation Yrotation Zrotation
											JOINT LeftHandPinky4
											{
												OFFSET 5.571716 0.000000 0.000000
												CHANNELS 3 Xrotation Yrotation Zrotation
												End Site
												{
													OFFSET -3.459808 4.342407 -0.466164
												}
											}
										}
									}
								}
								JOINT LeftHandRing1
								{
									OFFSET 22.726120 -0.094986 -6.500475
									CHANNELS 3 Xrotation Yrotation Zrotation
									JOINT LeftHandRing2
									{
										OFFSET 6.408615 0.000000 0.000000
										CHANNELS 3 Xrotation Yrotation Zrotation
										JOINT LeftHandRing3
										{
											OFFSET 6.150223 0.000000 0.000000
											CHANNELS 3 Xrotation Yrotation Zrotation
											JOINT LeftHandRing4
											{
												OFFSET 6.145386 0.000000 0.000000
												CHANNELS 3 Xrotation Yrotation Zrotation
												End Site
												{
													OFFSET -3.671402 4.923981 -0.202372
												}
											}
										}
									}
								}
								JOINT LeftHandMiddle1
								{
									OFFSET 23.373947 0.000000 0.000001
									CHANNELS 3 Xrotation Yrotation Zrotation
									JOINT LeftHandMiddle2
									{
										OFFSET 6.996567 0.000000 0.000000
										CHANNELS 3 Xrotation Yrotation Zrotation
										JOINT LeftHandMiddle3
										{
											OFFSET 7.015945 0.000000 0.000000
											CHANNELS 3 Xrotation Yrotation Zrotation
											JOINT LeftHandMiddle4
											{
												OFFSET 7.721573 0.000000 0.000000
												CHANNELS 3 Xrotation Yrotation Zrotation
												End Site
												{
													OFFSET -4.651108 6.158463 0.251582
												}
											}
										}
									}
								}
								JOINT LeftHandIndex1
								{
									OFFSET 21.310577 -0.490082 6.209344
									CHANNELS 3 Xrotation Yrotation Zrotation
									JOINT LeftHandIndex2
									{
										OFFSET 7.536453 0.000000 0.000000
										CHANNELS 3 Xrotation Yrotation Zrotation
										JOINT LeftHandIndex3
										{
											OFFSET 7.512344 0.000000 0.000000
											CHANNELS 3 Xrotation Yrotation Zrotation
											JOINT LeftHandIndex4
											{
												OFFSET 10.212402 0.000000 0.000001
												CHANNELS 3 Xrotation Yrotation Zrotation
												End Site
												{
													OFFSET -5.180801 8.690506 1.388433
												}
											}
										}
									}
								}
							}
						}
					}
				}
				JOINT RightShoulder
				{
					OFFSET -17.399500 24.608795 1.168800
					CHANNELS 3 Xrotation Yrotation Zrotation
					JOINT RightArm
					{
						OFFSET -18.980635 5.765305 1.818600
						CHANNELS 3 Xrotation Yrotation Zrotation
						JOINT RightForeArm
						{
							OFFSET -49.290169 0.000000 0.000000
							CHANNELS 3 Xrotation Yrotation Zrotation
							JOINT RightHand
							{
								OFFSET -31.562012 0.000000 0.000000
								CHANNELS 3 Xrotation Yrotation Zrotation
								JOINT RightHandThumb1
								{
									OFFSET -6.133995 -4.388519 7.076070
									CHANNELS 3 Xrotation Yrotation Zrotation
									JOINT RightHandThumb2
									{
										OFFSET -6.037666 -3.485840 3.485847
										CHANNELS 3 Xrotation Yrotation Zrotation
										JOINT RightHandThumb3
										{
											OFFSET -6.496506 -3.750763 3.750761
											CHANNELS 3 Xrotation Yrotation Zrotation
											JOINT RightHandThumb4
											{
												OFFSET -5.616882 -3.242905 3.242910
												CHANNELS 3 Xrotation Yrotation Zrotation
												End Site
												{
													OFFSET 1.254608 7.132141 0.375429
												}
											}
										}
									}
								}
								JOINT RightHandIndex1
								{
									OFFSET -21.310577 -0.490082 6.209344
									CHANNELS 3 Xrotation Yrotation Zrotation
									JOINT RightHandIndex2
									{
										OFFSET -7.536453 0.000000 0.000000
										CHANNELS 3 Xrotation Yrotation Zrotation
										JOINT RightHandIndex3
										{
											OFFSET -7.512344 0.000000 0.000000
											CHANNELS 3 Xrotation Yrotation Zrotation
											JOINT RightHandIndex4
											{
												OFFSET -10.212402 0.000000 0.000001
												CHANNELS 3 Xrotation Yrotation Zrotation
												End Site
												{
													OFFSET 5.180801 8.690506 1.388433
												}
											}
										}
									}
								}
								JOINT RightHandMiddle1
								{
									OFFSET -23.373947 0.000000 0.000001
									CHANNELS 3 Xrotation Yrotation Zrotation
									JOINT RightHandMiddle2
									{
										OFFSET -6.996567 0.000000 0.000000
										CHANNELS 3 Xrotation Yrotation Zrotation
										JOINT RightHandMiddle3
										{
											OFFSET -7.015945 0.000000 0.000000
											CHANNELS 3 Xrotation Yrotation Zrotation
											JOINT RightHandMiddle4
											{
												OFFSET -7.721573 0.000000 0.000000
												CHANNELS 3 Xrotation Yrotation Zrotation
												End Site
												{
													OFFSET 4.651108 6.158463 0.251582
												}
											}
										}
									}
								}
								JOINT RightHandRing1
								{
									OFFSET -22.726120 -0.094986 -6.500475
									CHANNELS 3 Xrotation Yrotation Zrotation
									JOINT RightHandRing2
									{
										OFFSET -6.408615 0.000000 0.000000
										CHANNELS 3 Xrotation Yrotation Zrotation
										JOINT RightHandRing3
										{
											OFFSET -6.150223 0.000000 0.000000
											CHANNELS 3 Xrotation Yrotation Zrotation
											JOINT RightHandRing4
											{
												OFFSET -6.145386 0.000000 0.000000
												CHANNELS 3 Xrotation Yrotation Zrotation
												End Site
												{
													OFFSET 3.671402 4.923981 -0.202372
												}
											}
										}
									}
								}
								JOINT RightHandPinky1
								{
									OFFSET -18.920792 -0.453171 -11.426712
									CHANNELS 3 Xrotation Yrotation Zrotation
									JOINT RightHandPinky2
									{
										OFFSET -4.919586 0.000000 0.000000
										CHANNELS 3 Xrotation Yrotation Zrotation
										JOINT RightHandPinky3
										{
											OFFSET -5.233047 0.000000 0.000000
											CHANNELS 3 Xrotation Yrotation Zrotation
											JOINT RightHandPinky4
											{
												OFFSET -5.571716 0.000000 0.000000
												CHANNELS 3 Xrotation Yrotation Zrotation
												End Site
												{
													OFFSET 3.459808 4.342407 -0.466164
												}
											}
										}
									}
								}
							}
						}
					}
				}
			}
		}
	}
	JOINT LeftUpLeg
	{
		OFFSET 19.899099 -7.885101 -3.429500
		CHANNELS 3 Xrotation Yrotation Zrotation
		JOINT LeftLeg
		{
			OFFSET 1.745560 -36.997807 10.304700
			CHANNELS 3 Xrotation Yrotation Zrotation
			JOINT LeftFoot
			{
				OFFSET -1.745558 -29.803308 -13.615400
				CHANNELS 3 Xrotation Yrotation Zrotation
				JOINT LeftToeBase
				{
					OFFSET 1.181900 -18.539904 15.226099
					CHANNELS 3 Xrotation Yrotation Zrotation
					JOINT LeftToe_End
					{
						OFFSET -0.863701 1.402801 16.534700
						CHANNELS 3 Xrotation Yrotation Zrotation
						End Site
						{
							OFFSET 0.000000 16.616566 0.000000
						}
					}
				}
			}
		}
	}
	JOINT RightUpLeg
	{
		OFFSET -19.899099 -7.885101 -3.429500
		CHANNELS 3 Xrotation Yrotation Zrotation
		JOINT RightLeg
		{
			OFFSET -1.745560 -36.997807 10.304700
			CHANNELS 3 Xrotation Yrotation Zrotation
			JOINT RightFoot
			{
				OFFSET 1.745558 -29.803308 -13.615400
				CHANNELS 3 Xrotation Yrotation Zrotation
				JOINT RightToeBase
				{
					OFFSET -1.181900 -18.539904 15.226099
					CHANNELS 3 Xrotation Yrotation Zrotation
					JOINT RightToe_End
					{
						OFFSET 0.863701 1.402801 16.534700
						CHANNELS 3 Xrotation Yrotation Zrotation
						End Site
						{
							OFFSET 0.000000 16.616566 0.000000
						}
					}
				}
			}
		}
	}
}
MOTION
Frames: 5
Frame Time: 0.033333
57.344368 21.897476 -7.493809 1.127137 -197.397112 77.914502 13.634432 -11.343072 -10.026951 -0.259172 -12.089659 -9.538326 0.185669 -12.865971 -9.279225 -11.097527 7.884995 -24.546411 -14.580442 0.913409 -18.587076 -0.000000 -0.000003 0.000000 5.695125 -17.834274 -8.144193 -62.985655 -17.974140 -34.554255 69.171764 -6.572581 35.758994 -66.320256 5.130485 21.913598 40.109931 -15.297179 -0.360503 5.639844 28.097906 11.338839 1.088513 40.896294 22.734054 -0.000001 -0.000000 -0.000002 -17.946915 14.754983 -51.485857 8.868446 8.667047 -84.811982 4.540446 8.852544 -59.152969 -0.000001 0.000001 -0.000007 -9.042466 10.045660 -60.766185 8.524093 9.508810 -66.893035 6.576580 9.896763 -70.385113 0.000001 0.000001 -0.000000 -2.345522 4.688856 -62.655217 8.754142 9.897089 -87.051301 1.995378 4.929276 -37.483416 0.000001 0.000000 0.000008 6.882244 2.840036 -61.140411 8.247994 7.640055 -89.897871 2.146101 8.173436 -41.827740 -0.000003 0.000005 0.000002 7.186874 -19.244989 10.929765 35.117752 -5.451469 75.898592 46.863051 56.099346 -17.854451 -1.906501 2.082641 5.847968 -13.480633 -8.612749 -1.009700 2.398536 -5.177564 -12.631612 7.597729 -15.468037 -2.138605 0.000001 0.000000 -0.000000 8.114996 -10.933923 17.849347 0.049068 -0.041321 29.548744 -0.156208 -1.085427 21.416355 -0.000002 -0.000003 -0.000004 7.097944 -12.135594 19.042496 0.209530 -2.393259 35.658881 0.170408 0.900830 14.453650 0.000001 0.000000 -0.000004 9.595273 -14.683322 15.576467 -0.012407 -2.279294 29.608996 0.208759 -2.238248 17.999657 -0.000000 0.000001 -0.000005 11.438520 -16.126292 11.569546 1.889375 -0.813357 31.584519 3.152837 -2.684354 24.909965 -0.000000 0.000000 0.000007 -42.747453 6.093595 -7.976061 45.683908 7.277868 9.623734 5.734651 -5.255178 9.958045 -9.318558 -0.000504 -0.000156 0.000000 -0.000000 0.000000 -35.046309 -15.419224 16.369168 83.761137 -23.450625 3.833208 28.336918 1.534112 -19.223023 -0.001639 -0.000504 0.000006 -0.000002 -0.000000 -0.000000 
65.837517 21.558418 -3.829737 -0.488853 -194.344195 88.786046 14.443929 -11.894077 -11.286509 0.562124 -12.095909 -8.231834 1.119022 -12.876091 -8.739457 -10.566993 6.823312 -23.390625 -13.014406 2.432873 -23.272164 -0.000001 0.000000 -0.000001 4.152726 -12.415042 -9.277648 -57.183966 -25.734777 -37.939980 62.655012 -14.698193 37.445802 -73.918541 -6.833396 21.405053 40.109934 -15.297180 -0.360502 5.639856 28.097906 11.338838 1.088516 40.896290 22.734040 0.000003 0.000001 0.000000 -17.946915 14.754981 -51.485853 8.868438 8.667049 -84.811982 4.540445 8.852544 -59.152969 -0.000000 -0.000000 -0.000001 -9.042468 10.045662 -60.766185 8.524096 9.508811 -66.893042 6.576579 9.896760 -70.385113 -0.000002 0.000003 0.000003 -2.345520 4.688854 -62.655210 8.754141 9.897090 -87.051307 1.995378 4.929274 -37.483426 0.000002 -0.000002 0.000004 6.882248 2.840040 -61.140404 8.247996 7.640057 -89.897871 2.146105 8.173436 -41.827734 -0.000002 -0.000000 -0.000001 2.492304 -21.667800 6.224009 28.608707 -8.302677 77.294157 43.898664 53.154728 -15.189873 0.598594 -1.556587 11.842935 -14.066918 -8.561054 -1.209657 2.331433 -5.246390 -12.261339 7.412335 -15.060181 -2.099684 0.000000 -0.000001 0.000001 7.700794 -10.685224 16.798794 0.047767 -0.042090 29.347284 -0.177901 -1.064959 19.957108 -0.000000 -0.000001 -0.000002 6.740593 -12.120331 18.114987 0.177137 -2.357846 34.910439 0.178130 0.886152 13.974849 -0.000000 0.000001 -0.000004 9.112522 -14.690318 14.635810 -0.013762 -2.240086 29.337517 0.189576 -2.209411 17.631297 -0.000002 -0.000000 -0.000003 10.878894 -16.175681 10.843598 1.846877 -0.795964 30.780411 3.088966 -2.612170 24.117272 0.000000 -0.000001 0.000004 -39.238672 5.558997 -7.697503 36.939726 -1.659150 5.969796 5.075988 -5.347403 10.918831 -9.318545 -0.000485 -0.000132 0.000001 -0.000000 0.000000 -35.836920 -11.968531 12.543775 67.901110 -22.784994 0.858909 23.799335 1.413810 -25.058948 -0.001672 -0.000473 -0.000007 0.000001 -0.000000 -0.000000 
73.296051 21.653465 -1.242390 -4.441071 -190.220878 102.272507 14.343887 -11.905489 -13.545126 1.377582 -11.145127 -5.838115 1.310587 -12.073756 -8.225920 -10.463462 3.443254 -19.489897 -9.907080 4.307433 -28.313651 -0.000001 0.000000 -0.000001 1.819557 -7.571707 -9.501209 -52.765001 -32.181372 -46.247429 54.979912 -25.027220 33.855106 -74.009717 -13.854660 26.566806 40.109931 -15.297175 -0.360502 5.639849 28.097906 11.338837 1.088514 40.896294 22.734042 0.000001 0.000004 0.000003 -17.946915 14.754978 -51.485860 8.868444 8.667047 -84.811975 4.540446 8.852544 -59.152963 -0.000000 0.000001 -0.000004 -9.042468 10.045660 -60.766178 8.524092 9.508809 -66.893042 6.576579 9.896765 -70.385113 -0.000000 -0.000000 0.000005 -2.345521 4.688857 -62.655210 8.754142 9.897088 -87.051307 1.995376 4.929272 -37.483419 0.000001 -0.000000 0.000001 6.882246 2.840038 -61.140411 8.247992 7.640056 -89.897871 2.146102 8.173436 -41.827740 0.000000 0.000001 0.000001 1.066646 -24.004603 4.384500 17.369169 -12.329275 78.301835 35.122609 40.833463 -8.427273 4.033023 -4.495613 20.629828 -15.097208 -8.411235 -1.608482 1.977713 -5.467573 -11.385520 7.041708 -14.265767 -2.020818 -0.000003 0.000000 -0.000000 6.865050 -10.026515 14.442677 0.045708 -0.044356 29.004333 -0.222005 -1.015446 16.897941 -0.000000 -0.000002 0.000001 5.888972 -12.004905 15.906706 0.116047 -2.274395 33.528552 0.195836 0.851039 12.982792 -0.000002 0.000001 -0.000001 8.011104 -14.580509 12.701783 -0.013101 -2.151507 28.806398 0.151668 -2.141163 16.909759 -0.000001 -0.000000 -0.000002 9.574930 -16.242362 9.145867 1.757166 -0.748281 29.264342 2.962203 -2.449499 22.771111 0.000000 0.000000 0.000000 -34.370017 6.726769 -3.672409 34.339159 2.937880 1.134768 -0.250405 -4.629288 12.296730 -9.318550 -0.000501 -0.000110 0.000002 -0.000000 0.000003 -32.831821 -7.238680 4.468872 44.444758 -10.632001 -0.134339 35.235696 0.562185 -15.852283 -0.001693 -0.000489 -0.000055 0.000001 0.000000 0.000001 
78.894379 22.418373 -0.011919 -10.142497 -184.662811 111.171642 13.433596 -10.422588 -14.668272 2.000624 -9.700622 -2.955468 0.890601 -10.800578 -6.982446 -8.540575 -1.860242 -8.964377 -6.634884 7.563922 -26.937971 -0.000002 0.000003 0.000001 -0.261690 -5.409060 -10.107445 -52.473229 -31.314443 -57.151495 53.594377 -28.614681 33.987902 -68.174427 -7.133574 32.840543 40.109931 -15.297179 -0.360501 5.639855 28.097904 11.338838 1.088509 40.896294 22.734051 -0.000000 -0.000000 -0.000002 -17.946920 14.754979 -51.485857 8.868448 8.667051 -84.811982 4.540446 8.852546 -59.152969 -0.000000 -0.000001 -0.000002 -9.042467 10.045662 -60.766185 8.524095 9.508811 -66.893049 6.576580 9.896762 -70.385113 0.000000 0.000000 0.000003 -2.345520 4.688855 -62.655210 8.754142 9.897092 -87.051301 1.995377 4.929274 -37.483419 -0.000000 -0.000001 0.000004 6.882247 2.840037 -61.140404 8.247998 7.640054 -89.897878 2.146101 8.173435 -41.827740 -0.000001 0.000005 0.000002 0.249814 -26.418999 3.063907 12.579262 -9.381068 74.022059 31.280975 36.063378 -6.062062 6.404912 -13.223450 32.888218 -17.131747 -8.150081 -2.287475 1.803037 -5.719047 -10.042518 6.241501 -12.483220 -1.806993 -0.000000 -0.000001 0.000002 5.413634 -8.982633 10.401243 0.040921 -0.047219 27.887842 -0.290229 -0.931683 11.133540 -0.000004 0.000000 -0.000001 4.576718 -11.823050 12.253924 0.010175 -2.140996 30.455752 0.226697 0.795682 10.864017 -0.000001 -0.000001 0.000003 6.232966 -14.401701 9.790720 -0.006195 -2.009854 27.455735 0.087992 -2.037179 15.386772 -0.000004 0.000000 0.000002 7.435095 -16.286566 6.266658 1.610660 -0.668216 25.897890 2.755429 -2.187257 19.548876 -0.000000 -0.000001 0.000004 -29.233237 6.772621 3.205012 37.083925 6.948565 -1.243617 1.101292 -2.288430 6.503079 -9.318541 -0.000479 -0.000097 -0.000000 0.000000 -0.000003 -30.567340 -5.826384 -2.017660 30.036156 -2.007053 1.050032 32.905741 1.756642 -5.343955 -0.001694 -0.000451 0.000014 0.000000 0.000001 -0.000002 
82.132385 23.855446 0.964338 -16.173936 -178.370417 112.704808 11.895545 -8.717131 -15.043867 2.780231 -8.652490 -0.459697 1.118532 -9.649245 -4.226285 -8.166974 -1.921926 3.502814 -5.587011 10.433699 -15.626906 -0.000000 0.000001 0.000002 -0.610061 -6.544650 -9.493380 -56.186485 -18.599068 -61.223562 54.229663 -30.037092 35.103658 -63.817873 -2.146172 28.497129 40.109938 -15.297179 -0.360502 5.639847 28.097904 11.338834 1.088512 40.896290 22.734044 -0.000000 -0.000001 -0.000001 -17.946915 14.754983 -51.485857 8.868446 8.667051 -84.811975 4.540446 8.852546 -59.152969 -0.000000 -0.000000 -0.000004 -9.042469 10.045661 -60.766185 8.524094 9.508811 -66.893042 6.576579 9.896762 -70.385120 0.000000 -0.000001 0.000003 -2.345521 4.688855 -62.655204 8.754144 9.897090 -87.051301 1.995376 4.929275 -37.483419 0.000001 -0.000001 0.000008 6.882245 2.840035 -61.140404 8.248001 7.640053 -89.897878 2.146103 8.173433 -41.827744 -0.000003 0.000003 0.000002 -0.485819 -27.129103 1.982113 12.833136 -2.978622 66.126292 26.235810 40.586719 -4.281370 13.131952 -22.911829 44.266149 -19.702367 -7.767897 -3.085500 1.653175 -6.039349 -8.384361 5.204306 -10.175002 -1.487401 0.000001 0.000003 0.000005 3.824944 -7.494002 5.385284 0.035894 -0.049833 26.391269 -0.356261 -0.824047 3.818594 -0.000002 -0.000001 -0.000002 3.011361 -11.451625 7.689325 -0.105276 -1.969230 26.494558 0.260306 0.724995 8.129252 -0.000001 -0.000002 -0.000002 4.064707 -14.006172 6.258787 0.008618 -1.835677 25.681298 0.015235 -1.905284 13.433014 -0.000003 -0.000002 -0.000003 4.782187 -16.127480 2.656790 1.449158 -0.549658 21.552645 2.549941 -1.842823 15.379395 -0.000001 0.000000 0.000001 -29.069131 4.937677 7.209990 42.225302 6.192424 3.127844 17.223551 -1.342238 3.612519 -9.318573 -0.000498 -0.000090 0.000001 -0.000000 0.000003 -30.464662 -5.973826 -5.367118 24.368935 0.181533 4.768758 21.065374 2.045050 3.406497 -0.001680 -0.000467 -0.000007 -0.000001 -0.000001 -0.000001 
